<svg width="168" height="111" viewBox="0 0 168 111" fill="none" xmlns="http://www.w3.org/2000/svg">
<path d="M6.84766 85.0999V15.1699H47.9367V24.3607H17.1199V41.7433H37.6645L35.3449 51.034H17.1199V75.8092H47.9367V85.0999H6.84766ZM58.2996 85.0999V15.1699H68.5719V75.8092H94.9705V85.0999H58.2996ZM123.666 85.0999V15.1699H164.755V24.4606H133.938V41.7433H154.483L152.163 51.034H133.938V85.0999H123.666Z" fill="#454545"/>
<path d="M94.8732 18.0363C96.4306 15.8865 98.5825 12.8271 98.5825 12.8271L106.36 28.868C106.36 28.868 102.413 26.3875 101.095 24.4857C102.415 53.0946 111.03 73.8487 102.535 89.5587C103.133 71.8642 97.9883 46.728 95.2322 19.1939C95.186 18.7327 94.5736 18.4497 94.8732 18.0363Z" fill="#454545"/>
</svg>
