<svg width="82" height="49" viewBox="0 0 82 49" fill="none" xmlns="http://www.w3.org/2000/svg">
<path d="M3.348 46V8.2H23.436V13.168H8.37V22.564H18.414L17.28 27.586H8.37V40.978H23.436V46H3.348ZM28.5023 46V8.2H33.5243V40.978H46.4303V46H28.5023ZM60.4593 46V8.2H80.5473V13.222H65.4813V22.564H75.5253L74.3913 27.586H65.4813V46H60.4593Z" fill="white"/>
<path d="M49.0402 9.91732C49.8016 8.75526 50.8536 7.10156 50.8536 7.10156L54.6559 15.7723C54.6559 15.7723 52.7263 14.4315 52.082 13.4035C52.7275 28.8678 56.9393 40.0861 52.786 48.5781C53.0785 39.0135 50.5631 25.4263 49.2157 10.543C49.1931 10.2937 48.8937 10.1408 49.0402 9.91732Z" fill="white"/>
</svg>
